:FULLY-SPECIFIED
:FORCE-ALL-JOINTS-BE-3DOF
:DEGREES
238
root 5.64744 15.6826 -25.8451 10.048 23.8445 -5.0802
lfemur -36.8259 30.7684 -5.1089
ltibia 50.7573 -0 0
lfoot -14.8638 2.67549 0.0868249
ltoes 2.72944 -0 0
rfemur -21.3357 -12.6704 3.69463
rtibia 43.4479 -0 0
rfoot -20.2558 -5.88168 -2.63119
rtoes 47.8043 -0 0
lowerback 1.24262 -2.16252 1.55529
upperback -0.642218 -2.82697 2.16751
thorax -1.30875 -1.41362 1.41596
lowerneck -11.3418 -2.70217 0.142914
upperneck 1.33517 -3.63059 0.514674
head 2.41082 -1.78924 -0.0571136
lclavicle -7.29226e-15 -8.78837e-15 3.64722e-30
lhumerus -53.3433 -37.177 120.459
lradius 60.9906 -0 0
lwrist 18.8983 0 0
lhand 11.1858 15.0013 0.0427015
lfingers 7.12502 -0 0
lthumb 36.2432 41.1977 0.0203755
rclavicle -7.29226e-15 -8.78837e-15 3.64722e-30
rhumerus -36.2652 -3.72338 -68.3223
rradius 89.5174 -0 0
rwrist -8.46647 0 0
rhand 26.1313 -20.9285 -3.25633
rfingers 7.12502 -0 0
rthumb 48.6148 -31.0387 0.388542
239
root 5.75081 15.7167 -25.8343 9.94983 25.5169 -4.88272
lfemur -36.8868 30.1665 -6.00335
ltibia 50.3036 -0 0
lfoot -15.0774 2.07791 0.0935095
ltoes 6.23653 -0 0
rfemur -20.7507 -11.3541 3.47682
rtibia 44.1809 -0 0
rfoot -18.2419 -7.82142 -2.83702
rtoes 46.0227 -0 0
lowerback 1.20099 -2.20215 1.4395
upperback -0.662181 -2.88155 2.23547
thorax -1.29513 -1.43934 1.55008
lowerneck -11.2396 -3.04213 0.0219353
upperneck 1.4114 -4.06777 0.537749
head 2.42277 -2.00712 -0.0520507
lclavicle -1.13569e-14 -7.47011e-15 3.92778e-30
lhumerus -53.2581 -36.9136 120.435
lradius 61.0444 -0 0
lwrist 18.9216 0 0
lhand 10.8117 14.8336 0.0459874
lfingers 7.12502 -0 0
lthumb 35.8883 41.1134 0.0219433
rclavicle -1.13569e-14 -7.47011e-15 3.92778e-30
rhumerus -36.6876 -4.1671 -68.032
rradius 86.1766 -0 0
rwrist -4.64306 0 0
rhand 22.6006 -19.5474 -3.51469
rfingers 7.12502 -0 0
rthumb 45.3941 -31.2182 0.419104
240
root 5.85418 15.7508 -25.8235 9.85675 27.1897 -4.68558
lfemur -36.9366 29.5639 -6.89167
ltibia 49.8499 -0 0
lfoot -15.291 1.4803 0.0979664
ltoes 9.74362 -0 0
rfemur -20.1733 -10.0358 3.27362
rtibia 44.914 -0 0
rfoot -16.2218 -9.76751 -2.97452
rtoes 44.2411 -0 0
lowerback 1.15945 -2.24187 1.32373
upperback -0.68221 -2.93611 2.30346
thorax -1.28158 -1.4651 1.6842
lowerneck -11.1366 -3.38188 -0.0996911
upperneck 1.4875 -4.50498 0.560254
head 2.4347 -2.225 -0.0470327
lclavicle -1.54215e-14 -6.15185e-15 4.11482e-30
lhumerus -53.1734 -36.6501 120.411
lradius 61.0982 -0 0
lwrist 18.9448 0 0
lhand 10.4375 14.6658 0.0481781
lfingers 7.12502 -0 0
lthumb 35.5335 41.029 0.0229886
rclavicle -1.54215e-14 -6.15185e-15 4.11482e-30
rhumerus -37.1125 -4.60866 -67.7384
rradius 82.8359 -0 0
rwrist -0.819658 0 0
rhand 19.0639 -18.1526 -3.68758
rfingers 7.12502 -0 0
rthumb 42.1733 -31.3992 0.439532
241
root 5.95755 15.7849 -25.8127 9.76877 28.8627 -4.48846
lfemur -36.9753 28.9607 -7.77417
ltibia 49.3962 -0 0
lfoot -15.5047 0.882689 0.100195
ltoes 13.2507 -0 0
rfemur -19.6029 -8.7155 3.08463
rtibia 45.647 -0 0
rfoot -14.198 -11.7174 -3.04335
rtoes 42.4595 -0 0
lowerback 1.11798 -2.28167 1.20799
upperback -0.702305 -2.99065 2.37147
thorax -1.26808 -1.49089 1.81832
lowerneck -11.0329 -3.7214 -0.221974
upperneck 1.56347 -4.94222 0.58219
head 2.44662 -2.44288 -0.0420592
lclavicle -1.94861e-14 -4.8336e-15 4.20833e-30
lhumerus -53.089 -36.3866 120.388
lradius 61.152 -0 0
lwrist 18.9681 0 0
lhand 10.0633 14.4981 0.0492734
lfingers 7.12502 -0 0
lthumb 35.1786 40.9446 0.0235112
rclavicle -1.94861e-14 -4.8336e-15 4.20833e-30
rhumerus -37.5399 -5.04803 -67.4412
rradius 79.4951 -0 0
rwrist 3.00375 0 0
rhand 15.5235 -16.7496 -3.77422
rfingers 7.12502 -0 0
rthumb 38.9524 -31.581 0.449762
242
root 6.06092 15.8189 -25.8019 9.686 30.536 -4.291
lfemur -37.0033 28.357 -8.65115
ltibia 48.9426 -0 0
lfoot -15.7183 0.285071 0.100195
ltoes 16.7578 -0 0
rfemur -19.0386 -7.39344 2.90953
rtibia 46.38 -0 0
rfoot -12.173 -13.6686 -3.04335
rtoes 40.678 -0 0
lowerback 1.07659 -2.32155 1.09227
upperback -0.722465 -3.04516 2.4395
thorax -1.25465 -1.51671 1.95242
lowerneck -10.9284 -4.06071 -0.344922
upperneck 1.63933 -5.37949 0.603558
head 2.45852 -2.66076 -0.0371303
lclavicle -2.35508e-14 -3.51534e-15 4.20833e-30
lhumerus -53.0051 -36.1231 120.366
lradius 61.2059 -0 0
lwrist 18.9914 0 0
lhand 9.68915 14.3304 0.0492734
lfingers 7.12502 -0 0
lthumb 34.8238 40.8602 0.0235112
rclavicle -2.35508e-14 -3.51534e-15 4.20833e-30
rhumerus -37.97 -5.48517 -67.1406
rradius 76.1543 -0 0
rwrist 6.82715 0 0
rhand 11.9818 -15.3439 -3.77422
rfingers 7.12502 -0 0
rthumb 35.7316 -31.763 0.449762
243
root 6.16429 15.853 -25.7911 9.60856 32.2095 -4.09286
lfemur -37.0207 27.7531 -9.52287
ltibia 48.4889 -0 0
lfoot -15.932 -0.312544 0.0979664
ltoes 20.2649 -0 0
rfemur -18.48 -6.06975 2.748
rtibia 47.113 -0 0
rfoot -10.1492 -15.6185 -2.97452
rtoes 38.8964 -0 0
lowerback 1.03528 -2.36151 0.976585
upperback -0.742692 -3.09964 2.50755
thorax -1.24128 -1.54256 2.08653
lowerneck -10.8231 -4.39979 -0.468544
upperneck 1.71508 -5.81679 0.624361
head 2.4704 -2.87864 -0.0322458
lclavicle -2.76154e-14 -2.19709e-15 4.11482e-30
lhumerus -52.9216 -35.8595 120.344
lradius 61.2597 -0 0
lwrist 19.0147 0 0
lhand 9.31498 14.1627 0.0481781
lfingers 7.12502 -0 0
lthumb 34.4689 40.7758 0.0229886
rclavicle -2.76154e-14 -2.19709e-15 4.11482e-30
rhumerus -38.4026 -5.92005 -66.8364
rradius 72.8135 -0 0
rwrist 10.6506 0 0
rhand 8.44139 -13.9409 -3.68758
rfingers 7.12502 -0 0
rthumb 32.5107 -31.9448 0.439532
244
root 6.26766 15.8871 -25.7803 9.5366 33.8833 -3.89364
lfemur -37.0277 27.1489 -10.3896
ltibia 48.0352 -0 0
lfoot -16.1456 -0.910145 0.0935095
ltoes 23.772 -0 0
rfemur -17.9264 -4.74457 2.59978
rtibia 47.8461 -0 0
rfoot -8.12913 -17.5646 -2.83702
rtoes 37.1148 -0 0
lowerback 0.994055 -2.40156 0.860921
upperback -0.762984 -3.1541 2.57563
thorax -1.22796 -1.56845 2.22063
lowerneck -10.7171 -4.73864 -0.59285
upperneck 1.79073 -6.25411 0.644599
head 2.48227 -3.09653 -0.0274056
lclavicle -3.168e-14 -8.78831e-16 3.92778e-30
lhumerus -52.8385 -35.5959 120.323
lradius 61.3135 -0 0
lwrist 19.0379 0 0
lhand 8.94082 13.9949 0.0459874
lfingers 7.12502 -0 0
lthumb 34.1141 40.6914 0.0219433
rclavicle -3.168e-14 -8.78831e-16 3.92778e-30
rhumerus -38.8379 -6.35262 -66.5287
rradius 69.4728 -0 0
rwrist 14.474 0 0
rhand 4.90465 -12.5461 -3.51469
rfingers 7.12502 -0 0
rthumb 29.2899 -32.1258 0.419104
